#!OML:ASF I:\Actors\actors\Patient Classification 1\Patient 1\Session 1\Subject1.ASF
:FULLY-SPECIFIED
:DEGREES
722
root 0.923343 17.7405 7.82159 5.146 6.48997 -8.99608
lowerback -0.716848 0.622809 5.46893
upperback -5.899 1.12688 2.94855
thorax -5.6923 0.378646 -0.0383645
lowerneck -7.93003 -3.96688 -1.85094
upperneck 32.2694 -6.70798 4.17885
head 12.1205 -2.71144 1.06067
rclavicle -2.51338e-014 -1.11816e-014
rhumerus 44.0538 -5.07119 -89.4501
rradius 18.8103
rwrist 74.0165
rhand -29.6122 -55.4404
rfingers 7.12502
rthumb -2.94295 634.6
lclavicle -2.51338e-014 -1.11816e-014
lhumerus 47.6527 -15.9667 87.2272
lradius 15.2273
lwrist -48.361
lhand -51.4105 -33.3159
lfingers 7.12502
lthumb -23.9423 -4.78863
rfemur -4.60806 20.5553 25.7958
rtibia 7.11063
rfoot -14.0156 -25.0724
rtoes 4.37023
lfemur -2.50751 -33.3241 -6.705
ltibia -0.472407
lfoot -5.63142 33.0767
ltoes -10.5963
723
root 0.934349 17.7416 7.84287 5.21118 6.70082 -9.01553
lowerback -0.642771 0.433498 5.5498
upperback -6.12485 0.901747 3.06725
thorax -5.98725 0.257913 0.0512019
lowerneck -7.32748 -3.84286 -2.2259
upperneck 32.3068 -6.43968 4.13186
head 12.0108 -2.65286 1.15578
rclavicle -1.37192e-014 2.75068e-014
rhumerus 43.144 0.887363 -83.2654
rradius 22.8374
rwrist 62.3082
rhand -30.4236 -57.2917
rfingers 7.12502
rthumb -3.72657 632.761
lclavicle -1.37192e-014 2.75068e-014
lhumerus 48.2352 -19.875 80.9151
lradius 19.5832
lwrist -39.1542
lhand -52.7567 -39.328
lfingers 7.12502
lthumb -25.2327 -10.9764
rfemur -4.47919 20.6677 25.8107
rtibia 6.89047
rfoot -14.0841 -25.3726
rtoes 4.73681
lfemur -2.61969 -33.3963 -6.66498
ltibia -0.441303
lfoot -5.5243 32.9148
ltoes -10.7226
724
root 0.943707 17.7436 7.86222 5.29682 7.05347 -9.01148
lowerback -0.528071 0.164609 5.53138
upperback -6.33969 0.574842 3.26542
thorax -6.29942 0.0946443 0.285873
lowerneck -7.01055 -3.77096 -2.81851
upperneck 32.5567 -6.22169 4.08247
head 12.0568 -2.63493 1.27539
rclavicle 2.18321e-014 -7.05686e-014
rhumerus 42.4927 6.53746 -76.8502
rradius 28.6347
rwrist 51.4711
rhand -31.1576 -59.4411
rfingers 7.12502
rthumb -4.43532 630.625
lclavicle 2.18321e-014 -7.05686e-014
lhumerus 48.1746 -22.1743 76.2575
lradius 24.8067
lwrist -33.8468
lhand -53.984 -46.5443
lfingers 7.12502
lthumb -26.408 -18.3636
rfemur -4.33265 20.7479 25.8146
rtibia 6.637
rfoot -14.1611 -25.7837
rtoes 5.09652
lfemur -2.84951 -33.4343 -6.59857
ltibia -0.368773
lfoot -5.41079 32.5961
ltoes -10.9343
725
root 0.950801 17.7453 7.87799 5.4317 7.58985 -8.98639
lowerback -0.390123 -0.0902718 5.49039
upperback -6.48158 0.264871 3.47629
thorax -6.54448 -0.0554899 0.547891
lowerneck -7.1912 -3.79256 -3.54175
upperneck 32.9074 -6.12498 4.07311
head 12.2606 -2.67324 1.40813
rclavicle -1.43995e-014 3.77691e-014
rhumerus 41.9903 9.96193 -71.9858
rradius 34.757
rwrist 46.7415
rhand -32.6434 -60.4975
rfingers 7.12502
rthumb -5.86993 810.396
lclavicle -1.43995e-014 3.77691e-014
lhumerus 47.8631 -23.3046 73.4327
lradius 29.765
lwrist -32.4031
lhand -54.9942 -54.2898
lfingers 7.12502
lthumb -27.3746 -26.258
rfemur -4.21546 20.8088 25.789
rtibia 6.34515
rfoot -14.3165 -26.3148
rtoes 5.64349
lfemur -3.29218 -33.3472 -6.45887
ltibia -0.20801
lfoot -5.32782 32.0318
ltoes -11.3035
726
root 0.954455 17.7471 7.88827 5.59377 8.22962 -9.01971
lowerback -0.305461 -0.313725 5.45297
upperback -6.53899 -0.0135654 3.66489
thorax -6.66458 -0.187213 0.783333
lowerneck -7.49697 -3.81625 -4.08846
upperneck 33.0449 -6.07921 4.16869
head 12.4037 -2.70122 1.54052
rclavicle -6.96989e-015 -9.64106e-015
rhumerus 41.5203 11.1241 -69.594
rradius 40.2973
rwrist 46.3679
rhand -34.1957 -61.1628
rfingers 7.12502
rthumb -7.36849 811.014
lclavicle -6.96989e-015 -9.64106e-015
lhumerus 47.8397 -23.6033 72.1531
lradius 33.4811
lwrist -33.885
lhand -55.301 -57.9143
lfingers 7.12502
lthumb -27.668 -29.9292
rfemur -4.16435 20.8594 25.8191
rtibia 6.07871
rfoot -14.5551 -26.8799
rtoes 6.33904
lfemur -3.87049 -33.169 -6.17348
ltibia -0.0227995
lfoot -5.14799 31.3524
ltoes -12.2202
727
root 0.955564 17.7483 7.89294 5.71321 8.84119 -9.127
lowerback 0.0602919 -0.399717 5.60413
upperback -6.84439 -0.0761765 3.57203
thorax -7.21082 -0.241621 0.617417
lowerneck -7.379 -3.88118 -3.93112
upperneck 33.2097 -6.24088 4.24357
head 12.4539 -2.74414 1.52459
rclavicle -1.13804e-014 -3.88624e-014
rhumerus 40.9664 10.6103 -69.0191
rradius 42.9987
rwrist 49.9891
rhand -34.5629 -63.1363
rfingers 7.12502
rthumb -7.72291 812.975
lclavicle -1.13804e-014 -3.88624e-014
lhumerus 48.2442 -23.8283 72.1091
lradius 33.6659
lwrist -36.5808
lhand -56.9704 -70.3905
lfingers 7.12502
lthumb -29.2632 -42.6724
rfemur -4.13705 20.8997 25.934
rtibia 5.88396
rfoot -14.8445 -27.3909
rtoes 7.04871
lfemur -4.37268 -33.1413 -5.81385
ltibia 0.0772311
lfoot -4.89427 30.8522
ltoes -13.1458
728
root 0.955175 17.7495 7.8943 5.8097 9.41134 -9.23814
lowerback -0.344984 -0.464729 5.46396
upperback -6.66897 -0.211045 3.61576
thorax -6.7875 -0.289591 0.73939
lowerneck -7.82461 -3.94025 -3.60929
upperneck 33.3972 -6.36504 4.16623
head 12.6183 -2.75723 1.4148
rclavicle -2.68484e-014 -7.45443e-015
rhumerus 42.6562 10.8631 -68.2283
rradius 43.0853
rwrist 43.9674
rhand -33.5464 -62.5105
rfingers 7.12502
rthumb -6.74173 812.383
lclavicle -2.68484e-014 -7.45443e-015
lhumerus 49.6082 -22.5953 73.6158
lradius 28.6784
lwrist -44.6265
lhand -62.2938 -67.0908
lfingers 7.12502
lthumb -34.3327 -40.3815
rfemur -4.12352 20.9476 26.0423
rtibia 5.70131
rfoot -15.1353 -27.8837
rtoes 7.6744
lfemur -4.78276 -33.4332 -5.47424
ltibia 0.099923
lfoot -4.74584 30.7115
ltoes -13.4685
729
root 0.954158 17.7535 7.89257 5.91897 9.88178 -9.29379
lowerback -0.55203 -0.177899 5.6626
upperback -6.69815 0.14853 3.29969
thorax -6.68866 -0.131506 0.276563
lowerneck -8.10281 -4.2495 -3.17848
upperneck 33.6441 -6.9628 4.31936
head 12.8039 -2.93686 1.31455
rclavicle -5.38407e-015 -6.40754e-014
rhumerus 44.6803 4.89649 -72.7297
rradius 31.5256
rwrist 59.539
rhand -38.7404 -66.7073
rfingers 7.12502
rthumb -11.7534 816.358
lclavicle -5.38407e-015 -6.40754e-014
lhumerus 51.9421 -20.8647 79.2451
lradius 20.8173
lwrist -44.3478
lhand -55.1961 -45.7374
lfingers 7.12502
lthumb -27.5677 -17.7363
rfemur -4.17732 21.0131 26.0594
rtibia 5.56894
rfoot -15.3821 -28.3142
rtoes 8.14367
lfemur -5.1193 -34.0278 -5.22487
ltibia 0.0915864
lfoot -4.74468 30.9634
ltoes -13.3951
730
root 0.954694 17.7623 7.88656 5.95889 10.2037 -9.24183
lowerback -0.783954 0.156452 5.66625
upperback -6.60632 0.552528 2.93598
thorax -6.43529 0.0627887 -0.128874
lowerneck -8.30162 -4.54574 -2.36587
upperneck 33.5565 -7.57023 4.35583
head 12.8067 -3.09332 1.10028
rclavicle -1.70831e-014 2.8625e-014
rhumerus 47.3127 -1.34148 -78.4312
rradius 22.3373
rwrist 69.7504
rhand -37.3072 -64.4159
rfingers 7.12502
rthumb -10.371 814.14
lclavicle -1.70831e-014 2.8625e-014
lhumerus 50.5251 -9.00451 100.213
lradius 11.9985
lwrist -67.6512
lhand -48.674 -30.652
lfingers 7.12502
lthumb -21.3159 -1.80434
rfemur -4.24055 20.9555 25.9462
rtibia 5.56552
rfoot -15.5599 -28.5183
rtoes 8.45327
lfemur -5.30491 -34.4758 -5.18911
ltibia 0.0935494
lfoot -4.74392 31.1327
ltoes -13.3398
731
root 0.955795 17.7753 7.87654 5.84225 10.3455 -9.20844
lowerback -0.777606 0.660775 5.87313
upperback -6.4418 1.18927 2.26824
thorax -6.21632 0.352661 -0.971558
lowerneck -8.55606 -4.95577 -0.64299
upperneck 33.2657 -8.43864 4.11386
head 12.6827 -3.29297 0.58639
rclavicle 3.18055e-015 1.82882e-014
rhumerus 56.985 -21.7542 -107.627
rradius 13.1354
rwrist 104.844
rhand -34.3414 -55.5543
rfingers 7.12502
rthumb -7.50911 634.599
lclavicle 3.18055e-015 1.82882e-014
lhumerus 51.4211 -11.1135 103.188
lradius 8.12868
lwrist -68.7653
lhand -45.5105 -8.54317
lfingers 7.12502
lthumb -18.2748 20.6184
rfemur -4.26364 20.7242 25.8845
rtibia 5.75261
rfoot -15.6272 -28.4386
rtoes 8.37313
lfemur -5.27318 -34.4622 -5.25278
ltibia 0.0897741
lfoot -4.65192 30.9575
ltoes -13.4996
